# xmcd
#
# Track frame offsets: 
#        150
#        17339
#        34351
#        51647
#        72569
#        92416
#        111989
#        126810
#        142537
#        162150
#        178799
#        201357
#        223035
#
# Disc length: 3296 seconds
#
# Revision: 0
# Processed by: cddbd v1.5.2PL0 Copyright (c) Steve Scherf et al.
# Submitted via: ExactAudioCopy v0.95b4
#
DISCID=bc0cde0d
DTITLE=Texas Renegade - After Everything
DYEAR=2007
DGENRE=Country Rock
TTITLE0=Angel Of The Moonlight
TTITLE1=More Than I Deserve
TTITLE2=Love Is A Funny Thing
TTITLE3=Born To Love You
TTITLE4=Summer Again
TTITLE5=Fight For You
TTITLE6=Julie
TTITLE7=Better Than Being Alone
TTITLE8=Bar Ditch
TTITLE9=Cold In California
TTITLE10=Still The One
TTITLE11=Gettysburg
TTITLE12=Cigarettes And Whiskey
EXTD=
EXTT0=
EXTT1=
EXTT2=
EXTT3=
EXTT4=
EXTT5=
EXTT6=
EXTT7=
EXTT8=
EXTT9=
EXTT10=
EXTT11=
EXTT12=
PLAYORDER=
